{
	"asset":{
		"generator":"Khronos glTF Blender I/O v4.0.44",
		"version":"2.0"
	},
	"extensionsUsed":[
		"KHR_materials_specular",
		"KHR_materials_ior",
		"KHR_texture_transform"
	],
	"extensionsRequired":[
		"KHR_texture_transform"
	],
	"scene":0,
	"scenes":[
		{
			"name":"Scene",
			"nodes":[
				0,
				1,
				2,
				3,
				4,
				5,
				6,
				7,
				8,
				9,
				10,
				11
			]
		}
	],
	"nodes":[
		{
			"mesh":0,
			"name":"Extrude_8",
			"rotation":[
				0.7071068286895752,
				0,
				0,
				0.7071068286895752
			],
			"scale":[
				0.009999999776482582,
				0.009999999776482582,
				0.009999999776482582
			],
			"translation":[
				0.658280611038208,
				-0.3798600733280182,
				0.005245064850896597
			]
		},
		{
			"mesh":1,
			"name":"Extrude_7",
			"rotation":[
				0.7071068286895752,
				0,
				0,
				0.7071068286895752
			],
			"scale":[
				0.009999999776482582,
				0.009999999776482582,
				0.009999999776482582
			],
			"translation":[
				0.658280611038208,
				-0.3798600733280182,
				0.00034741967101581395
			]
		},
		{
			"mesh":2,
			"name":"Extrude_6",
			"rotation":[
				0.7071068286895752,
				0,
				0,
				0.7071068286895752
			],
			"scale":[
				0.009999999776482582,
				0.009999999776482582,
				0.009999999776482582
			],
			"translation":[
				0.7481330037117004,
				-0.5690515637397766,
				-0.0001803165941964835
			]
		},
		{
			"mesh":3,
			"name":"Extrude_5",
			"rotation":[
				0.7071068286895752,
				0,
				0,
				0.7071068286895752
			],
			"scale":[
				0.009999999776482582,
				0.009999999776482582,
				0.009999999776482582
			],
			"translation":[
				0.749613344669342,
				0.1066078320145607,
				0.0016669133910909295
			]
		},
		{
			"mesh":4,
			"name":"Extrude_4",
			"rotation":[
				0.7071068286895752,
				0,
				0,
				0.7071068286895752
			],
			"scale":[
				0.009999999776482582,
				0.009999999776482582,
				0.009999999776482582
			],
			"translation":[
				-0.3687704801559448,
				0.09831060469150543,
				-0.0008836623164825141
			]
		},
		{
			"mesh":5,
			"name":"Extrude_3",
			"rotation":[
				0.7071068286895752,
				0,
				0,
				0.7071068286895752
			],
			"scale":[
				0.009999999776482582,
				0.009999999776482582,
				0.009999999776482582
			],
			"translation":[
				-0.41973578929901123,
				0.39335116744041443,
				-0.0005999974673613906
			]
		},
		{
			"mesh":6,
			"name":"Extrude_2",
			"rotation":[
				0.7071068286895752,
				0,
				0,
				0.7071068286895752
			],
			"scale":[
				0.009999999776482582,
				0.009999999776482582,
				0.009999999776482582
			],
			"translation":[
				-0.6796211004257202,
				0.09949003905057907,
				0.00036049055051989853
			]
		},
		{
			"mesh":7,
			"name":"Extrude_1",
			"rotation":[
				0.7071068286895752,
				0,
				0,
				0.7071068286895752
			],
			"scale":[
				0.009999999776482582,
				0.009999999776482582,
				0.009999999776482582
			],
			"translation":[
				-0.6796211004257202,
				0.09949003905057907,
				-0.0035587502643465996
			]
		},
		{
			"mesh":8,
			"name":"Extrude",
			"rotation":[
				0.7071068286895752,
				0,
				0,
				0.7071068286895752
			],
			"scale":[
				0.009999999776482582,
				0.009999999776482582,
				0.009999999776482582
			],
			"translation":[
				0.5992506742477417,
				-0.08298224955797195,
				-0.004708064720034599
			]
		},
		{
			"mesh":9,
			"name":"Sweep",
			"rotation":[
				0.7071068286895752,
				0,
				0,
				0.7071068286895752
			],
			"scale":[
				0.009999999776482582,
				0.010000000707805157,
				0.010000000707805157
			],
			"translation":[
				0.6579950451850891,
				-0.3801574110984802,
				-8.11874633654952e-05
			]
		},
		{
			"mesh":10,
			"name":"Sweep_1",
			"rotation":[
				0.7071068286895752,
				0,
				0,
				0.7071068286895752
			],
			"scale":[
				0.009999999776482582,
				0.010000000707805157,
				0.010000000707805157
			],
			"translation":[
				0.8290730714797974,
				-0.3801574110984802,
				-8.11874633654952e-05
			]
		},
		{
			"mesh":11,
			"name":"uzcard_001",
			"scale":[
				0.025158511474728584,
				0.025158511474728584,
				0.04125184565782547
			]
		}
	],
	"materials":[
		{
			"alphaMode":"BLEND",
			"doubleSided":true,
			"name":"Architectural Glass",
			"pbrMetallicRoughness":{}
		},
		{
			"doubleSided":true,
			"extensions":{
				"KHR_materials_specular":{
					"specularFactor":0
				},
				"KHR_materials_ior":{
					"ior":1.4500000476837158
				}
			},
			"name":"White Glossy",
			"pbrMetallicRoughness":{
				"baseColorFactor":[
					0.9350170493125916,
					0.9166560769081116,
					0.8895120620727539,
					1
				],
				"metallicFactor":0.30000001192092896,
				"roughnessFactor":0.5527864098548889
			}
		},
		{
			"doubleSided":true,
			"name":"Silver",
			"pbrMetallicRoughness":{
				"baseColorFactor":[
					0.6038273572921753,
					0.6038273572921753,
					0.6038273572921753,
					1
				],
				"metallicFactor":0.75,
				"roughnessFactor":0
			}
		},
		{
			"alphaMode":"BLEND",
			"doubleSided":true,
			"extensions":{
				"KHR_materials_specular":{
					"specularFactor":0
				},
				"KHR_materials_ior":{
					"ior":1.4500000476837158
				}
			},
			"name":"Plastic Green - Glossy",
			"pbrMetallicRoughness":{
				"baseColorTexture":{
					"extensions":{
						"KHR_texture_transform":{
							"offset":[
								0,
								-1
							]
						}
					},
					"index":0
				},
				"metallicFactor":0.3499999940395355,
				"roughnessFactor":0.5527864098548889
			}
		}
	],
	"meshes":[
		{
			"name":"Mesh",
			"primitives":[
				{
					"attributes":{
						"POSITION":0,
						"NORMAL":1,
						"TEXCOORD_0":2
					},
					"indices":3,
					"material":0
				}
			]
		},
		{
			"name":"Mesh.001",
			"primitives":[
				{
					"attributes":{
						"POSITION":4,
						"NORMAL":5,
						"TEXCOORD_0":6
					},
					"indices":3,
					"material":0
				}
			]
		},
		{
			"name":"Mesh.002",
			"primitives":[
				{
					"attributes":{
						"POSITION":7,
						"NORMAL":8,
						"TEXCOORD_0":9
					},
					"indices":10,
					"material":1
				}
			]
		},
		{
			"name":"Mesh.003",
			"primitives":[
				{
					"attributes":{
						"POSITION":11,
						"NORMAL":12,
						"TEXCOORD_0":13
					},
					"indices":14,
					"material":1
				}
			]
		},
		{
			"name":"Mesh.004",
			"primitives":[
				{
					"attributes":{
						"POSITION":15,
						"NORMAL":16,
						"TEXCOORD_0":17
					},
					"indices":18,
					"material":1
				}
			]
		},
		{
			"name":"Mesh.005",
			"primitives":[
				{
					"attributes":{
						"POSITION":19,
						"NORMAL":20,
						"TEXCOORD_0":21
					},
					"indices":22,
					"material":1
				}
			]
		},
		{
			"name":"Mesh.006",
			"primitives":[
				{
					"attributes":{
						"POSITION":23,
						"NORMAL":24,
						"TEXCOORD_0":25
					},
					"indices":26,
					"material":2
				}
			]
		},
		{
			"name":"Mesh.007",
			"primitives":[
				{
					"attributes":{
						"POSITION":27,
						"NORMAL":28,
						"TEXCOORD_0":29
					},
					"indices":30,
					"material":2
				}
			]
		},
		{
			"name":"Mesh.008",
			"primitives":[
				{
					"attributes":{
						"POSITION":31,
						"NORMAL":32,
						"TEXCOORD_0":33,
						"TEXCOORD_1":34
					},
					"indices":35,
					"material":0
				}
			]
		},
		{
			"name":"Mesh.009",
			"primitives":[
				{
					"attributes":{
						"POSITION":36,
						"NORMAL":37,
						"TEXCOORD_0":38
					},
					"indices":39,
					"material":2
				}
			]
		},
		{
			"name":"Mesh.010",
			"primitives":[
				{
					"attributes":{
						"POSITION":40,
						"NORMAL":41,
						"TEXCOORD_0":42
					},
					"indices":39,
					"material":2
				}
			]
		},
		{
			"name":"Mesh.011",
			"primitives":[
				{
					"attributes":{
						"POSITION":43,
						"NORMAL":44,
						"TEXCOORD_0":45
					},
					"indices":46,
					"material":3
				}
			]
		}
	],
	"textures":[
		{
			"sampler":0,
			"source":0
		}
	],
	"images":[
		{
			"mimeType":"image/png",
			"name":"Image_0_1024",
			"uri":"Image_0_1024.png"
		}
	],
	"accessors":[
		{
			"bufferView":0,
			"componentType":5126,
			"count":274,
			"max":[
				30.471054077148438,
				-0.5779253840446472,
				13.424442291259766
			],
			"min":[
				3.622170925140381,
				-1.0779253244400024,
				-13.424442291259766
			],
			"type":"VEC3"
		},
		{
			"bufferView":1,
			"componentType":5126,
			"count":274,
			"type":"VEC3"
		},
		{
			"bufferView":2,
			"componentType":5126,
			"count":274,
			"type":"VEC2"
		},
		{
			"bufferView":3,
			"componentType":5123,
			"count":804,
			"type":"SCALAR"
		},
		{
			"bufferView":4,
			"componentType":5126,
			"count":274,
			"max":[
				13.424442291259766,
				0,
				13.424442291259766
			],
			"min":[
				-13.424442291259766,
				-0.5,
				-13.424442291259766
			],
			"type":"VEC3"
		},
		{
			"bufferView":5,
			"componentType":5126,
			"count":274,
			"type":"VEC3"
		},
		{
			"bufferView":6,
			"componentType":5126,
			"count":274,
			"type":"VEC2"
		},
		{
			"bufferView":7,
			"componentType":5126,
			"count":16484,
			"max":[
				19.89422607421875,
				0.25,
				2.3043763637542725
			],
			"min":[
				-20.92167091369629,
				-0.05000000074505806,
				-3.0049185752868652
			],
			"type":"VEC3"
		},
		{
			"bufferView":8,
			"componentType":5126,
			"count":16484,
			"type":"VEC3"
		},
		{
			"bufferView":9,
			"componentType":5126,
			"count":16484,
			"type":"VEC2"
		},
		{
			"bufferView":10,
			"componentType":5123,
			"count":83388,
			"type":"SCALAR"
		},
		{
			"bufferView":11,
			"componentType":5126,
			"count":11340,
			"max":[
				21.881362915039062,
				0.05000000074505806,
				4.04616641998291
			],
			"min":[
				-23.380634307861328,
				-0.25,
				-2.471234083175659
			],
			"type":"VEC3"
		},
		{
			"bufferView":12,
			"componentType":5126,
			"count":11340,
			"type":"VEC3"
		},
		{
			"bufferView":13,
			"componentType":5126,
			"count":11340,
			"type":"VEC2"
		},
		{
			"bufferView":14,
			"componentType":5123,
			"count":56784,
			"type":"SCALAR"
		},
		{
			"bufferView":15,
			"componentType":5126,
			"count":5894,
			"max":[
				6.096131801605225,
				0.25,
				7.528069972991943
			],
			"min":[
				-5.643824100494385,
				-0.05000000074505806,
				-7.528766632080078
			],
			"type":"VEC3"
		},
		{
			"bufferView":16,
			"componentType":5126,
			"count":5894,
			"type":"VEC3"
		},
		{
			"bufferView":17,
			"componentType":5126,
			"count":5894,
			"type":"VEC2"
		},
		{
			"bufferView":18,
			"componentType":5123,
			"count":30864,
			"type":"SCALAR"
		},
		{
			"bufferView":19,
			"componentType":5126,
			"count":56258,
			"max":[
				49.00739669799805,
				0.25,
				6.5270185470581055
			],
			"min":[
				-46.0460319519043,
				-0.05000000074505806,
				-13.928190231323242
			],
			"type":"VEC3"
		},
		{
			"bufferView":20,
			"componentType":5126,
			"count":56258,
			"type":"VEC3"
		},
		{
			"bufferView":21,
			"componentType":5126,
			"count":56258,
			"type":"VEC2"
		},
		{
			"bufferView":22,
			"componentType":5123,
			"count":280464,
			"type":"SCALAR"
		},
		{
			"bufferView":23,
			"componentType":5126,
			"count":290,
			"max":[
				13.064129829406738,
				0,
				9.572846412658691
			],
			"min":[
				-13.064129829406738,
				-0.24542580544948578,
				-9.572846412658691
			],
			"type":"VEC3"
		},
		{
			"bufferView":24,
			"componentType":5126,
			"count":290,
			"type":"VEC3"
		},
		{
			"bufferView":25,
			"componentType":5126,
			"count":290,
			"type":"VEC2"
		},
		{
			"bufferView":26,
			"componentType":5123,
			"count":852,
			"type":"SCALAR"
		},
		{
			"bufferView":27,
			"componentType":5126,
			"count":6190,
			"max":[
				13.349932670593262,
				0.690851628780365,
				10.025664329528809
			],
			"min":[
				-13.349932670593262,
				-0.20000000298023224,
				-10.025664329528809
			],
			"type":"VEC3"
		},
		{
			"bufferView":28,
			"componentType":5126,
			"count":6190,
			"type":"VEC3"
		},
		{
			"bufferView":29,
			"componentType":5126,
			"count":6190,
			"type":"VEC2"
		},
		{
			"bufferView":30,
			"componentType":5123,
			"count":31236,
			"type":"SCALAR"
		},
		{
			"bufferView":31,
			"componentType":5126,
			"count":322,
			"max":[
				47.6618537902832,
				0.5048279762268066,
				59.86410140991211
			],
			"min":[
				-54.194271087646484,
				0,
				-76.1618423461914
			],
			"type":"VEC3"
		},
		{
			"bufferView":32,
			"componentType":5126,
			"count":322,
			"type":"VEC3"
		},
		{
			"bufferView":33,
			"componentType":5126,
			"count":322,
			"type":"VEC2"
		},
		{
			"bufferView":34,
			"componentType":5126,
			"count":322,
			"type":"VEC2"
		},
		{
			"bufferView":35,
			"componentType":5123,
			"count":720,
			"type":"SCALAR"
		},
		{
			"bufferView":36,
			"componentType":5126,
			"count":4921,
			"max":[
				13.951891899108887,
				0.28552499413490295,
				13.951891899108887
			],
			"min":[
				-13.951891899108887,
				-0.28552499413490295,
				-13.951891899108887
			],
			"type":"VEC3"
		},
		{
			"bufferView":37,
			"componentType":5126,
			"count":4921,
			"type":"VEC3"
		},
		{
			"bufferView":38,
			"componentType":5126,
			"count":4921,
			"type":"VEC2"
		},
		{
			"bufferView":39,
			"componentType":5123,
			"count":28512,
			"type":"SCALAR"
		},
		{
			"bufferView":40,
			"componentType":5126,
			"count":4921,
			"max":[
				13.951891899108887,
				0.28552499413490295,
				13.951891899108887
			],
			"min":[
				-13.951891899108887,
				-0.28552499413490295,
				-13.951891899108887
			],
			"type":"VEC3"
		},
		{
			"bufferView":41,
			"componentType":5126,
			"count":4921,
			"type":"VEC3"
		},
		{
			"bufferView":42,
			"componentType":5126,
			"count":4921,
			"type":"VEC2"
		},
		{
			"bufferView":43,
			"componentType":5126,
			"count":824,
			"max":[
				42.79999923706055,
				26.989999771118164,
				0
			],
			"min":[
				-42.79999923706055,
				-26.989999771118164,
				-0.5
			],
			"type":"VEC3"
		},
		{
			"bufferView":44,
			"componentType":5126,
			"count":824,
			"type":"VEC3"
		},
		{
			"bufferView":45,
			"componentType":5126,
			"count":824,
			"type":"VEC2"
		},
		{
			"bufferView":46,
			"componentType":5123,
			"count":2436,
			"type":"SCALAR"
		}
	],
	"bufferViews":[
		{
			"buffer":0,
			"byteLength":3288,
			"byteOffset":0,
			"target":34962
		},
		{
			"buffer":0,
			"byteLength":3288,
			"byteOffset":3288,
			"target":34962
		},
		{
			"buffer":0,
			"byteLength":2192,
			"byteOffset":6576,
			"target":34962
		},
		{
			"buffer":0,
			"byteLength":1608,
			"byteOffset":8768,
			"target":34963
		},
		{
			"buffer":0,
			"byteLength":3288,
			"byteOffset":10376,
			"target":34962
		},
		{
			"buffer":0,
			"byteLength":3288,
			"byteOffset":13664,
			"target":34962
		},
		{
			"buffer":0,
			"byteLength":2192,
			"byteOffset":16952,
			"target":34962
		},
		{
			"buffer":0,
			"byteLength":197808,
			"byteOffset":19144,
			"target":34962
		},
		{
			"buffer":0,
			"byteLength":197808,
			"byteOffset":216952,
			"target":34962
		},
		{
			"buffer":0,
			"byteLength":131872,
			"byteOffset":414760,
			"target":34962
		},
		{
			"buffer":0,
			"byteLength":166776,
			"byteOffset":546632,
			"target":34963
		},
		{
			"buffer":0,
			"byteLength":136080,
			"byteOffset":713408,
			"target":34962
		},
		{
			"buffer":0,
			"byteLength":136080,
			"byteOffset":849488,
			"target":34962
		},
		{
			"buffer":0,
			"byteLength":90720,
			"byteOffset":985568,
			"target":34962
		},
		{
			"buffer":0,
			"byteLength":113568,
			"byteOffset":1076288,
			"target":34963
		},
		{
			"buffer":0,
			"byteLength":70728,
			"byteOffset":1189856,
			"target":34962
		},
		{
			"buffer":0,
			"byteLength":70728,
			"byteOffset":1260584,
			"target":34962
		},
		{
			"buffer":0,
			"byteLength":47152,
			"byteOffset":1331312,
			"target":34962
		},
		{
			"buffer":0,
			"byteLength":61728,
			"byteOffset":1378464,
			"target":34963
		},
		{
			"buffer":0,
			"byteLength":675096,
			"byteOffset":1440192,
			"target":34962
		},
		{
			"buffer":0,
			"byteLength":675096,
			"byteOffset":2115288,
			"target":34962
		},
		{
			"buffer":0,
			"byteLength":450064,
			"byteOffset":2790384,
			"target":34962
		},
		{
			"buffer":0,
			"byteLength":560928,
			"byteOffset":3240448,
			"target":34963
		},
		{
			"buffer":0,
			"byteLength":3480,
			"byteOffset":3801376,
			"target":34962
		},
		{
			"buffer":0,
			"byteLength":3480,
			"byteOffset":3804856,
			"target":34962
		},
		{
			"buffer":0,
			"byteLength":2320,
			"byteOffset":3808336,
			"target":34962
		},
		{
			"buffer":0,
			"byteLength":1704,
			"byteOffset":3810656,
			"target":34963
		},
		{
			"buffer":0,
			"byteLength":74280,
			"byteOffset":3812360,
			"target":34962
		},
		{
			"buffer":0,
			"byteLength":74280,
			"byteOffset":3886640,
			"target":34962
		},
		{
			"buffer":0,
			"byteLength":49520,
			"byteOffset":3960920,
			"target":34962
		},
		{
			"buffer":0,
			"byteLength":62472,
			"byteOffset":4010440,
			"target":34963
		},
		{
			"buffer":0,
			"byteLength":3864,
			"byteOffset":4072912,
			"target":34962
		},
		{
			"buffer":0,
			"byteLength":3864,
			"byteOffset":4076776,
			"target":34962
		},
		{
			"buffer":0,
			"byteLength":2576,
			"byteOffset":4080640,
			"target":34962
		},
		{
			"buffer":0,
			"byteLength":2576,
			"byteOffset":4083216,
			"target":34962
		},
		{
			"buffer":0,
			"byteLength":1440,
			"byteOffset":4085792,
			"target":34963
		},
		{
			"buffer":0,
			"byteLength":59052,
			"byteOffset":4087232,
			"target":34962
		},
		{
			"buffer":0,
			"byteLength":59052,
			"byteOffset":4146284,
			"target":34962
		},
		{
			"buffer":0,
			"byteLength":39368,
			"byteOffset":4205336,
			"target":34962
		},
		{
			"buffer":0,
			"byteLength":57024,
			"byteOffset":4244704,
			"target":34963
		},
		{
			"buffer":0,
			"byteLength":59052,
			"byteOffset":4301728,
			"target":34962
		},
		{
			"buffer":0,
			"byteLength":59052,
			"byteOffset":4360780,
			"target":34962
		},
		{
			"buffer":0,
			"byteLength":39368,
			"byteOffset":4419832,
			"target":34962
		},
		{
			"buffer":0,
			"byteLength":9888,
			"byteOffset":4459200,
			"target":34962
		},
		{
			"buffer":0,
			"byteLength":9888,
			"byteOffset":4469088,
			"target":34962
		},
		{
			"buffer":0,
			"byteLength":6592,
			"byteOffset":4478976,
			"target":34962
		},
		{
			"buffer":0,
			"byteLength":4872,
			"byteOffset":4485568,
			"target":34963
		}
	],
	"samplers":[
		{
			"magFilter":9729,
			"minFilter":9987
		}
	],
	"buffers":[
		{
			"byteLength":4490440,
			"uri":"666.bin"
		}
	]
}
