{
	"asset":{
		"generator":"Khronos glTF Blender I/O v4.0.44",
		"version":"2.0"
	},
	"extensionsUsed":[
		"KHR_materials_specular",
		"KHR_materials_ior",
		"KHR_texture_transform"
	],
	"extensionsRequired":[
		"KHR_texture_transform"
	],
	"scene":0,
	"scenes":[
		{
			"name":"Scene",
			"nodes":[
				3
			]
		}
	],
	"nodes":[
		{
			"mesh":0,
			"name":"Sweep",
			"rotation":[
				0.7071068286895752,
				0,
				0,
				0.7071068286895752
			],
			"scale":[
				0.009999999776482582,
				0.010000001639127731,
				0.010000001639127731
			],
			"translation":[
				65.79950714111328,
				-0.008118745870888233,
				38.01573944091797
			]
		},
		{
			"mesh":1,
			"name":"Sweep_1",
			"rotation":[
				0.7071068286895752,
				0,
				0,
				0.7071068286895752
			],
			"scale":[
				0.009999999776482582,
				0.010000001639127731,
				0.010000001639127731
			],
			"translation":[
				82.90731048583984,
				-0.008118745870888233,
				38.01573944091797
			]
		},
		{
			"mesh":2,
			"name":"uzcard_001",
			"scale":[
				0.025158511474728584,
				0.04125184565782547,
				0.025158511474728584
			]
		},
		{
			"children":[
				0,
				1,
				2
			],
			"name":"Scene",
			"rotation":[
				0.7071068286895752,
				0,
				0,
				0.7071068286895752
			],
			"scale":[
				0.009999999776482582,
				0.009999999776482582,
				0.009999999776482582
			]
		}
	],
	"materials":[
		{
			"doubleSided":true,
			"extensions":{
				"KHR_materials_specular":{
					"specularFactor":0
				},
				"KHR_materials_ior":{
					"ior":1.4500000476837158
				}
			},
			"name":"White Glossy",
			"pbrMetallicRoughness":{
				"baseColorFactor":[
					0.9708737730979919,
					0.9624314308166504,
					0.9497678279876709,
					1
				],
				"metallicFactor":0.30000001192092896,
				"roughnessFactor":0.5527864098548889
			}
		},
		{
			"alphaMode":"BLEND",
			"doubleSided":true,
			"extensions":{
				"KHR_materials_specular":{
					"specularFactor":0
				},
				"KHR_materials_ior":{
					"ior":1.4500000476837158
				}
			},
			"name":"Plastic Green - Glossy",
			"pbrMetallicRoughness":{
				"baseColorTexture":{
					"extensions":{
						"KHR_texture_transform":{
							"offset":[
								0,
								-1
							]
						}
					},
					"index":0
				},
				"metallicFactor":0.3499999940395355,
				"roughnessFactor":0.5527864098548889
			}
		}
	],
	"meshes":[
		{
			"name":"Mesh.001",
			"primitives":[
				{
					"attributes":{
						"POSITION":0,
						"NORMAL":1,
						"TEXCOORD_0":2
					},
					"indices":3,
					"material":0
				}
			]
		},
		{
			"name":"Mesh",
			"primitives":[
				{
					"attributes":{
						"POSITION":4,
						"NORMAL":5,
						"TEXCOORD_0":6
					},
					"indices":3,
					"material":0
				}
			]
		},
		{
			"name":"Mesh.002",
			"primitives":[
				{
					"attributes":{
						"POSITION":7,
						"NORMAL":8,
						"TEXCOORD_0":9
					},
					"indices":10,
					"material":1
				}
			]
		}
	],
	"textures":[
		{
			"sampler":0,
			"source":0
		}
	],
	"images":[
		{
			"mimeType":"image/png",
			"name":"Image_0",
			"uri":"Image_0.png"
		}
	],
	"accessors":[
		{
			"bufferView":0,
			"componentType":5126,
			"count":4921,
			"max":[
				1395.189208984375,
				1395.189208984375,
				28.552499771118164
			],
			"min":[
				-1395.189208984375,
				-1395.189208984375,
				-28.552499771118164
			],
			"type":"VEC3"
		},
		{
			"bufferView":1,
			"componentType":5126,
			"count":4921,
			"type":"VEC3"
		},
		{
			"bufferView":2,
			"componentType":5126,
			"count":4921,
			"type":"VEC2"
		},
		{
			"bufferView":3,
			"componentType":5123,
			"count":28512,
			"type":"SCALAR"
		},
		{
			"bufferView":4,
			"componentType":5126,
			"count":4921,
			"max":[
				1395.189208984375,
				1395.189208984375,
				28.552499771118164
			],
			"min":[
				-1395.189208984375,
				-1395.189208984375,
				-28.552499771118164
			],
			"type":"VEC3"
		},
		{
			"bufferView":5,
			"componentType":5126,
			"count":4921,
			"type":"VEC3"
		},
		{
			"bufferView":6,
			"componentType":5126,
			"count":4921,
			"type":"VEC2"
		},
		{
			"bufferView":7,
			"componentType":5126,
			"count":824,
			"max":[
				4280,
				0,
				2699
			],
			"min":[
				-4280,
				-50,
				-2699
			],
			"type":"VEC3"
		},
		{
			"bufferView":8,
			"componentType":5126,
			"count":824,
			"type":"VEC3"
		},
		{
			"bufferView":9,
			"componentType":5126,
			"count":824,
			"type":"VEC2"
		},
		{
			"bufferView":10,
			"componentType":5123,
			"count":2436,
			"type":"SCALAR"
		}
	],
	"bufferViews":[
		{
			"buffer":0,
			"byteLength":59052,
			"byteOffset":0,
			"target":34962
		},
		{
			"buffer":0,
			"byteLength":59052,
			"byteOffset":59052,
			"target":34962
		},
		{
			"buffer":0,
			"byteLength":39368,
			"byteOffset":118104,
			"target":34962
		},
		{
			"buffer":0,
			"byteLength":57024,
			"byteOffset":157472,
			"target":34963
		},
		{
			"buffer":0,
			"byteLength":59052,
			"byteOffset":214496,
			"target":34962
		},
		{
			"buffer":0,
			"byteLength":59052,
			"byteOffset":273548,
			"target":34962
		},
		{
			"buffer":0,
			"byteLength":39368,
			"byteOffset":332600,
			"target":34962
		},
		{
			"buffer":0,
			"byteLength":9888,
			"byteOffset":371968,
			"target":34962
		},
		{
			"buffer":0,
			"byteLength":9888,
			"byteOffset":381856,
			"target":34962
		},
		{
			"buffer":0,
			"byteLength":6592,
			"byteOffset":391744,
			"target":34962
		},
		{
			"buffer":0,
			"byteLength":4872,
			"byteOffset":398336,
			"target":34963
		}
	],
	"samplers":[
		{
			"magFilter":9729,
			"minFilter":9987
		}
	],
	"buffers":[
		{
			"byteLength":403208,
			"uri":"888.bin"
		}
	]
}
