{
	"asset":{
		"generator":"Khronos glTF Blender I/O v4.0.44",
		"version":"2.0"
	},
	"scene":0,
	"scenes":[
		{
			"name":"Scene",
			"nodes":[
				2
			]
		}
	],
	"nodes":[
		{
			"mesh":0,
			"name":"uzcard.001",
			"scale":[
				0.025158513337373734,
				0.025158513337373734,
				0.010777338407933712
			]
		},
		{
			"children":[
				0
			],
			"name":"uzcard"
		},
		{
			"children":[
				1
			],
			"name":"RootNode"
		}
	],
	"materials":[
		{
			"name":"DefaultMaterial",
			"normalTexture":{
				"index":0
			},
			"occlusionTexture":{
				"index":1
			},
			"pbrMetallicRoughness":{
				"baseColorTexture":{
					"index":2
				},
				"metallicRoughnessTexture":{
					"index":1
				}
			}
		}
	],
	"meshes":[
		{
			"name":"uzcard",
			"primitives":[
				{
					"attributes":{
						"POSITION":0,
						"NORMAL":1,
						"TEXCOORD_0":2
					},
					"indices":3,
					"material":0
				}
			]
		}
	],
	"textures":[
		{
			"sampler":0,
			"source":0
		},
		{
			"sampler":0,
			"source":1
		},
		{
			"sampler":0,
			"source":2
		}
	],
	"images":[
		{
			"mimeType":"image/png",
			"name":"Image_2",
			"uri":"Image_2.png"
		},
		{
			"mimeType":"image/png",
			"name":"Image_1",
			"uri":"Image_1.png"
		},
		{
			"mimeType":"image/png",
			"name":"Image_0",
			"uri":"Image_0.png"
		}
	],
	"accessors":[
		{
			"bufferView":0,
			"componentType":5126,
			"count":824,
			"max":[
				42.79999923706055,
				26.989999771118164,
				0
			],
			"min":[
				-42.79999923706055,
				-26.989999771118164,
				-0.5
			],
			"type":"VEC3"
		},
		{
			"bufferView":1,
			"componentType":5126,
			"count":824,
			"type":"VEC3"
		},
		{
			"bufferView":2,
			"componentType":5126,
			"count":824,
			"type":"VEC2"
		},
		{
			"bufferView":3,
			"componentType":5123,
			"count":2436,
			"type":"SCALAR"
		}
	],
	"bufferViews":[
		{
			"buffer":0,
			"byteLength":9888,
			"byteOffset":0,
			"target":34962
		},
		{
			"buffer":0,
			"byteLength":9888,
			"byteOffset":9888,
			"target":34962
		},
		{
			"buffer":0,
			"byteLength":6592,
			"byteOffset":19776,
			"target":34962
		},
		{
			"buffer":0,
			"byteLength":4872,
			"byteOffset":26368,
			"target":34963
		}
	],
	"samplers":[
		{
			"magFilter":9729,
			"minFilter":9987
		}
	],
	"buffers":[
		{
			"byteLength":31240,
			"uri":"02.bin"
		}
	]
}
